<?xml version="1.0" encoding="utf-8"?>
<!-- Generator: Adobe Illustrator 21.0.2, SVG Export Plug-In . SVG Version: 6.00 Build 0)  -->
<svg version="1.1" id="圖層_1" xmlns="http://www.w3.org/2000/svg" xmlns:xlink="http://www.w3.org/1999/xlink" x="0px" y="0px"
	 viewBox="0 0 48 48" style="enable-background:new 0 0 48 48;" xml:space="preserve">
<style type="text/css">
	.st0{fill:#FFFFFF;}
</style>
<g id="Expanded">
	<g>
		<g>
			<path class="st0" d="M44,48H4c-2.2,0-4-1.8-4-4V14c0-2.2,1.8-4,4-4h20c0.6,0,1,0.4,1,1s-0.4,1-1,1H4c-1.1,0-2,0.9-2,2v30
				c0,1.1,0.9,2,2,2h40c1.1,0,2-0.9,2-2V14c0-1.1-0.9-2-2-2c-0.6,0-1-0.4-1-1s0.4-1,1-1c2.2,0,4,1.8,4,4v30C48,46.2,46.2,48,44,48z"
				/>
		</g>
		<g>
			<path class="st0" d="M44,44H10V14h10c0.6,0,1,0.4,1,1s-0.4,1-1,1h-8v26h30V16h-2c-0.6,0-1-0.4-1-1s0.4-1,1-1h4V44z"/>
		</g>
		<g>
			<path class="st0" d="M8,42H0V16h8V42z M2,40h4V18H2V40z"/>
		</g>
		<g>
			<path class="st0" d="M17.4,27.6l2.6-8.3l18-18c1.5-1.5,4.1-1.5,5.7,0c1.6,1.6,1.6,4.1,0,5.7l-18,18L17.4,27.6z M21.8,20.3
				l-1.3,4.1l4.1-1.3L42.3,5.5c0.8-0.8,0.8-2,0-2.8c-0.8-0.8-2.1-0.8-2.8,0L21.8,20.3z"/>
		</g>
		<g>
			<rect x="1" y="24" class="st0" width="6" height="2"/>
		</g>
		<g>
			<rect x="1" y="32" class="st0" width="6" height="2"/>
		</g>
		<g>
			<path class="st0" d="M41.6,8.6c-0.3,0-0.5-0.1-0.7-0.3l-4.2-4.2c-0.4-0.4-0.4-1,0-1.4s1-0.4,1.4,0l4.2,4.2c0.4,0.4,0.4,1,0,1.4
				C42.1,8.5,41.9,8.6,41.6,8.6z"/>
		</g>
		<g>
			<path class="st0" d="M36,14.3c-0.3,0-0.5-0.1-0.7-0.3L31,9.8c-0.4-0.4-0.4-1,0-1.4s1-0.4,1.4,0l4.2,4.2c0.4,0.4,0.4,1,0,1.4
				C36.5,14.2,36.2,14.3,36,14.3z"/>
		</g>
		<g>
			<path class="st0" d="M25.2,25c-0.3,0-0.5-0.1-0.7-0.3l-4.2-4.2c-0.4-0.4-0.4-1,0-1.4s1-0.4,1.4,0l4.2,4.2c0.4,0.4,0.4,1,0,1.4
				C25.7,24.9,25.5,25,25.2,25z"/>
		</g>
		<g>
			<path class="st0" d="M17,29c-0.3,0-0.5-0.1-0.7-0.3c-0.4-0.4-0.4-1,0-1.4l2-2c0.4-0.4,1-0.4,1.4,0s0.4,1,0,1.4l-2,2
				C17.5,28.9,17.3,29,17,29z"/>
		</g>
	</g>
</g>
</svg>
