<svg id="Layer_1" data-name="Layer 1" xmlns="http://www.w3.org/2000/svg" viewBox="0 0 96 96"><defs><style>.cls-1{fill:#fff;}</style></defs><title>工作區域 1</title><path class="cls-1" d="M87,9V76.4L48.8,86.6a5.38,5.38,0,0,1-.8.1c-.4,0-.8,0-.8-.1L9,76.4V9H87m3.6-6H5.4A2.43,2.43,0,0,0,3,5.4V78.5a3.54,3.54,0,0,0,2.4,3.1L45.7,92.3a9.75,9.75,0,0,0,4.8,0L90.8,81.6a3.33,3.33,0,0,0,2.4-3.1V5.4A2.77,2.77,0,0,0,90.6,3Z"/><rect class="cls-1" x="3" y="16" width="90" height="4"/><path class="cls-1" d="M48,83.6a11.74,11.74,0,0,1-3.11-.38L3.47,71.93l1.05-3.86,41.4,11.3a9,9,0,0,0,4,0L91.47,68.07l1.05,3.86L51,83.23A11.62,11.62,0,0,1,48,83.6Z"/><path class="cls-1" d="M14.5,56.7a3.19,3.19,0,0,1,3.1-3.4,3.36,3.36,0,1,1-3.1,3.4Z"/><path class="cls-1" d="M24.6,36H30l6,11.7,2.3,5.2h.1c-.2-2.5-.6-5.8-.6-8.6V36h5V59.6H37.5l-6-11.7-2.3-5.1h-.1c.2,2.6.6,5.7.6,8.5v8.3h-5V36Z"/><path class="cls-1" d="M47.1,36H61.5v4.5H52.3v4.7h7.9v4.4H52.3V55h9.6v4.5H47.1Z"/><path class="cls-1" d="M69.9,40.5H63.6V36H81.5v4.5H75.2V59.6H70V40.5Z"/></svg>