<?xml version="1.0" encoding="utf-8"?>
<!-- Generator: Adobe Illustrator 21.0.2, SVG Export Plug-In . SVG Version: 6.00 Build 0)  -->
<svg version="1.1"
	 id="svgRoot" inkscape:version="0.47+devel r9232" sodipodi:docname="Institute for Information Industry.svg" xmlns:cc="http://creativecommons.org/ns#" xmlns:dc="http://purl.org/dc/elements/1.1/" xmlns:inkscape="http://www.inkscape.org/namespaces/inkscape" xmlns:rdf="http://www.w3.org/1999/02/22-rdf-syntax-ns#" xmlns:sodipodi="http://sodipodi.sourceforge.net/DTD/sodipodi-0.dtd" xmlns:svg="http://www.w3.org/2000/svg"
	 xmlns="http://www.w3.org/2000/svg" xmlns:xlink="http://www.w3.org/1999/xlink" x="0px" y="0px" viewBox="0 0 256 223.6"
	 style="enable-background:new 0 0 256 223.6;" xml:space="preserve">
<style type="text/css">
	.st0{fill:#FFFFFF;}
</style>
<g>
	
		<sodipodi:namedview  bordercolor="#666666" borderopacity="1" gridtolerance="10" guidetolerance="10" id="namedview59" inkscape:current-layer="svgRoot" inkscape:cx="128" inkscape:cy="111.79402" inkscape:pageopacity="0" inkscape:pageshadow="2" inkscape:window-height="544" inkscape:window-maximized="1" inkscape:window-width="1024" inkscape:window-x="-4" inkscape:window-y="-4" inkscape:zoom="1.6414117" objecttolerance="10" pagecolor="#ffffff" showgrid="false">
		</sodipodi:namedview>
	<g id="xfrm18" transform="translate(50.8599,35.6328)">
		<path id="path43" inkscape:connector-curvature="0" class="st0" d="M200.2,36.5L76.5-30.7L-45.9,36.5H200.2z"/>
	</g>
	<g id="xfrm20" transform="translate(30.6855,19.9707)">
		<path id="path47" inkscape:connector-curvature="0" class="st0" d="M51.3,183.5l-2.3-0.2l-2.3-0.4l-1.2-0.3l-1.1-0.3l-1.1-0.3
			l-1-0.5l-0.9-0.5l-0.9-0.7l-0.8-0.7l-0.8-0.8l-0.8-0.9l-0.6-1.1l-0.3-0.8l-0.3-0.8l-0.2-0.8l-0.2-0.9l-0.3-79l0.1-3.2l0.2-2.9
			l0.2-1.3l0.3-1.2l0.3-1l0.4-0.8l0.6-0.9l0.7-0.8l0.8-0.8l0.9-0.6l0.9-0.7l1-0.5l1.1-0.5l1.1-0.3l1.1-0.3l1.2-0.3l2.3-0.4l2.3-0.3
			l2.2-0.3V60.9h-73.3v16.3l0.1,0.1l0.2,0.1l0.7,0.2l1.3,0.2l4.1,0.8l2.1,0.4l1.9,0.6l1,0.4l0.8,0.4l0.9,0.6l0.8,0.6l0.7,0.7
			l0.7,0.8l0.6,0.9l0.4,1.1l0.3,0.7l0.3,0.8l0.3,1.7l0.1,1.8v1.8v79.7l-0.1,2.1l-0.2,1l-0.3,0.9l-0.3,1.1l-0.5,1l-0.6,0.9l-0.8,0.9
			l-0.8,0.8l-0.9,0.7l-0.9,0.7l-0.8,0.5l-2.5,1l-2.1,0.2l-1.3,0.2l-1.7,0.3l-1.9,0.2h-1.4v0.3h-0.2l-0.1,0.2v0.3v14.4h73.5v-15.2
			L51.3,183.5L51.3,183.5z"/>
	</g>
	<g id="xfrm22" transform="translate(49.8853,19.9707)">
		<path id="path51" inkscape:connector-curvature="0" class="st0" d="M193,183.5l-2.3-0.2l-2.3-0.4l-1.1-0.3l-1.2-0.3l-1-0.3
			l-1.1-0.5L183,181l-0.9-0.7l-0.8-0.7l-0.8-0.8l-0.7-0.9l-0.7-1.1l-0.3-0.8l-0.3-0.8l-0.2-0.8l-0.1-0.9l-0.3-79l0.1-3.2l0.2-2.9
			l0.2-1.3l0.3-1.2l0.3-1l0.3-0.8l0.6-0.9l0.7-0.8l0.8-0.8l0.8-0.6l0.9-0.7l1-0.5l1.1-0.5l1.1-0.3l1.1-0.3l1.2-0.3l2.3-0.4l2.3-0.3
			l2.2-0.3V60.9h-73.3v16.3l0.1,0.1l0.2,0.1l0.7,0.2l1.3,0.2l4.1,0.8l2.1,0.4l2,0.6l0.9,0.4l0.9,0.4l0.8,0.6l0.8,0.6l0.7,0.7
			l0.7,0.8l0.6,0.9l0.5,1.1l0.3,0.7l0.2,0.8l0.3,1.7l0.1,1.8v1.8l0.1,79.7l-0.2,2.1l-0.2,1l-0.2,0.9l-0.4,1.1l-0.5,1l-0.6,0.9
			l-0.8,0.9l-0.8,0.8l-0.8,0.7l-0.9,0.7l-0.9,0.5l-2.5,1l-2.1,0.2l-1.3,0.2l-1.7,0.3l-1.8,0.2h-1.5v0.3h-0.2v0.2l-0.1,0.3v14.4h73.5
			v-15.2L193,183.5L193,183.5z"/>
	</g>
	<g id="xfrm24" transform="translate(40.2852,19.9707)">
		<path id="path55" inkscape:connector-curvature="0" class="st0" d="M122.1,183.5l-2.3-0.2l-2.3-0.4l-1.1-0.3l-1.2-0.3l-1-0.3
			l-1.1-0.5l-0.9-0.5l-0.9-0.7l-0.8-0.7l-0.8-0.8l-0.8-0.9l-0.6-1.1L108,176l-0.3-0.8l-0.3-0.8l-0.1-0.9l-0.3-79l0.1-3.2l0.2-2.9
			l0.2-1.3l0.3-1.2l0.3-1l0.3-0.8l0.6-0.9l0.7-0.8l0.8-0.8l0.8-0.6l0.9-0.7l1-0.5l1.1-0.5l1.1-0.3l1.1-0.3l1.2-0.3l2.3-0.4l2.3-0.3
			l2.2-0.3V60.9H51.2v16.3l0.1,0.1l0.2,0.1l0.7,0.2l1.3,0.2l4.1,0.8l2.1,0.4l1.9,0.6l1,0.4l0.9,0.4l0.8,0.6l0.8,0.6l0.7,0.7l0.7,0.8
			l0.6,0.9l0.5,1.1l0.3,0.7l0.2,0.8l0.3,1.7l0.1,1.8v1.8l0.1,79.7l-0.2,2.1l-0.2,1l-0.3,0.9l-0.3,1.1l-0.5,1l-0.6,0.9l-0.8,0.9
			l-0.8,0.8l-0.9,0.7l-0.8,0.7l-0.9,0.5l-2.5,1l-2.1,0.2l-1.3,0.2l-1.7,0.3l-1.8,0.2h-1.5v0.3H51v0.2l-0.1,0.3v14.4h73.5v-15.2
			L122.1,183.5L122.1,183.5z"/>
	</g>
	<g id="frm26" transform="scale(0.01,0.01)">
	</g>
</g>
</svg>
