<?xml version="1.0" encoding="utf-8"?>
<!-- Generator: Adobe Illustrator 21.0.2, SVG Export Plug-In . SVG Version: 6.00 Build 0)  -->
<svg version="1.1" id="Layer_1" xmlns="http://www.w3.org/2000/svg" xmlns:xlink="http://www.w3.org/1999/xlink" x="0px" y="0px"
	 viewBox="0 0 24 24" style="enable-background:new 0 0 24 24;" xml:space="preserve">
<style type="text/css">
	.st0{fill:#FFFFFF;}
</style>
<path class="st0" d="M22.7,14.4v-2.7c0-0.5-0.4-1-1-1h-4.9c0,0,0,0-0.1,0c-1-1.9-1.8-3.3-2.3-4.1C14,6,13.6,5.2,13.1,4.4
	c-1.8-3.1-2.4-4.2-3.2-3.8c-0.8,0.5-0.5,1.9,1.2,5.8c-0.4-0.1-0.9,0.1-1.1,0.5l-2.2,3.8c0,0-0.1,0-0.1,0H2.3c-0.5,0-1,0.4-1,1v2.7
	c0,0.4,0.3,1.3,1,1.3H5l-2,3.4c-0.1,0.2-0.2,0.4-0.1,0.6c-0.2,0.1-0.3,0.4-0.4,0.6l-0.3,2.3c0,0.4,0.1,0.6,0.2,0.7
	c0.1,0.1,0.3,0.2,0.5,0.2c0.2,0,0.3-0.1,0.5-0.3l2-1.3c0.2-0.1,0.3-0.2,0.3-0.4C6,21.4,6.2,21.3,6.3,21l3.1-5.3h6.2
	c0.9,1.7,1.1,1.8,1.2,1.9c0.1,0,0.2,0.1,0.3,0.1c0,0.2,0,0.5,0.1,0.7l0.9,1.4c0.1,0.2,0.3,0.3,0.6,0.4c-0.1,0.4,0,0.9,0.3,1.4
	c0.4,0.6,1.1,0.9,1.6,1.1c0.2,0.1,0.5,0.2,0.6,0.3c0.1,0.2,0.3,0.3,0.5,0.3c0.3,0,0.5-0.2,0.5-0.4c0-0.2,0.2-2.5-0.7-3.5
	c-0.2-0.2-0.4-0.3-0.7-0.4c0-0.2,0-0.5-0.1-0.7l-0.7-1.4c-0.1-0.2-0.4-0.4-0.6-0.5c0.1-0.3,0.1-0.5,0-0.7h2.2
	C22.4,15.7,22.8,14.9,22.7,14.4z M12.9,9.7c0.1,0.3,0.3,0.7,0.4,1h-1L12.9,9.7z M2.4,14.7c0,0-0.1-0.2-0.1-0.3v-2.7h4.9l-1.7,3H2.4z
	 M3.2,22.2l0.2-1.6l1.1,0.7L3.2,22.2z M5.4,20.5H5.3l-1.5-0.9v-0.1l7-12.2l-0.4-0.2l0.5,0.2l0.9,0.6C11.9,7.9,12,8,12.1,8l0.3,0.2
	v0.1L5.4,20.5z M10,14.7l1.8-3h2c0.6,1.3,1,2.2,1.4,3H10z M13.6,8.6C13.6,8.6,13.6,8.5,13.6,8.6c0-0.5-0.2-1-0.6-1.2l-0.3-0.2
	l-0.2-0.4C12,5.7,11,3.5,10.6,2.2c0.5,0.7,1.2,1.8,1.7,2.7c0.5,0.8,1,1.6,1.4,2.3c0.6,1,1.7,2.9,3.2,5.7C17,12.9,17,13,17,13
	l0.3,0.6c0,0.1,0.1,0.1,0.1,0.2l0.1,0.1l0.1,0.1l0.6,1.1c0.2,0.4,0.3,0.7,0.4,0.8c0.1,0,0.1,0.1,0.1,0.1c0,0.1,0,0.1,0,0.2
	c0,0.1,0,0.1-0.1,0.2c0,0,0,0,0,0l-0.9,0.4c0,0,0,0,0,0c0,0-0.1,0-0.2,0C17.1,16.4,15.5,13,13.6,8.6z M20.9,20
	c0.3,0.3,0.4,1.1,0.4,1.8c0,0-0.1-0.1-0.2-0.1c-0.5-0.2-0.9-0.4-1.2-0.8c-0.2-0.3-0.3-0.5-0.2-0.6c0,0,0.1,0,0.1,0l0.6-0.4
	c0,0,0,0,0,0C20.6,19.9,20.8,19.9,20.9,20z M20,18.7c0,0,0,0.2-0.1,0.2l-0.6,0.4c-0.1,0-0.1,0-0.2-0.1l-0.9-1.4l0.1-0.1l0.9-0.5
	c0,0,0.1,0,0.1,0.1L20,18.7z M19.1,14.7c0-0.1-0.1-0.1-0.1-0.2l-0.6-1.1L18,13.6l0.1-0.3l-0.5-0.9c-0.1-0.2-0.2-0.5-0.4-0.7h4.5v2.7
	c0,0,0,0.2-0.1,0.3H19.1z"/>
</svg>
