<?xml version="1.0" encoding="utf-8"?>
<!-- Generator: Adobe Illustrator 21.0.2, SVG Export Plug-In . SVG Version: 6.00 Build 0)  -->
<svg version="1.1" id="Layer_1" xmlns="http://www.w3.org/2000/svg" xmlns:xlink="http://www.w3.org/1999/xlink" x="0px" y="0px"
	 viewBox="0 0 200 200" style="enable-background:new 0 0 200 200;" xml:space="preserve">
<style type="text/css">
	.st0{fill:#FFFFFF;}
</style>
<g id="New_Symbol">
</g>
<g id="New_Symbol_1_">
</g>
<g id="New_Symbol_1">
</g>
<g id="New_Symbol_9_2_">
</g>
<g id="New_Symbol_7">
</g>
<g id="New_Symbol_9_1_">
</g>
<g id="New_Symbol_9">
</g>
<g id="Nuevo_símbolo">
</g>
<g id="New_Symbol_10">
</g>
<g id="New_Symbol_12">
</g>
<g id="New_Symbol_14">
</g>
<g id="New_Symbol_15">
</g>
<g id="New_Symbol_16">
</g>
<g id="New_Symbol_17_1_">
</g>
<g id="New_Symbol_18">
</g>
<g id="New_Symbol_19">
</g>
<g id="New_Symbol_17">
</g>
<path class="st0" d="M173.2,20c-6.4-6.4-15-10-24-10c-8.1,0-16,2.9-22.1,8.2l-1,0.9l-2.3,2.3l-0.9,1.1c-6.1,7.5-8.8,17.3-7.3,26.9
	c-86.6,85.9-86.8,86.2-87,86.6l-0.1,0.1L17,169.6c-0.5,1.3-0.2,2.7,0.7,3.7c0.7,0.7,1.6,1.1,2.5,1.1c0.2,0,0.7,0,1.2-0.3l33.8-10.1
	H56l34.5-35v37.4H65.9c-5.5,0-9.9,4.2-9.9,9.3v4.3c0,5.3,4.7,10.1,9.9,10.1h91.3c5.5,0,8.5-5.2,8.5-10.1v-4.3c0-4.5-2.7-9.3-8.5-9.3
	h-41.7v-62.2l27-26.7c0.1,0.1,0.2,0.1,0.3,0.1l0.1,0.1l0.4,0.2c2.1,0.8,3.5,0.8,4.9,0.8l0.9,0c7.5,0,15.2-2.8,21.5-7.9l0.1-0.1l3-3
	v-0.1l0.2-0.2l1-1.1C186.4,52.8,185.7,32.4,173.2,20z M165.5,66.1c-4.9,3.8-10.6,5.9-16.2,5.9c-1.7,0-3.1-0.4-3.8-0.6l-22.9-23.1
	c-1-7.1,0.8-14.5,5.1-20.2l18.4,18.3L165.5,66.1z M108.3,111.2v55H97.9v-44.4l7.3-7.6L108.3,111.2z M44.7,145.3l67.9-67.9l2.7,2.7
	L47.4,148L44.7,145.3z M39.5,140.1l-2.4-2.4L105,69.8l2.4,2.4L39.5,140.1z M47.8,158.9l-11.7,3.6l-6.9-6.9l3.9-11.3L47.8,158.9z
	 M120.4,85.2l2.1,2.3l-8.6,8.3l-5.3,5.5l-54,54.2l-2.2-2.2L120.4,85.2z M127.9,82.2l-17.6-17.6l9.3-9.3l17.6,17.6L127.9,82.2z
	 M158.4,179.8c0,1.3-0.5,2.8-1.2,2.8H65.9c-1,0-2.5-1.8-2.5-2.8v-4.3c0-0.8,1.3-1.1,2.5-1.1h91.3c1.1,0,1.2,0.2,1.2,1.1V179.8z
	 M149.1,17.1c7.2,0,14,2.8,19.1,7.9c4.8,4.8,7.5,11.1,7.8,17.9c0.4,6.5-1.6,12.8-5.6,17.8l-37.9-37.9
	C137.2,19.1,143,17.1,149.1,17.1z"/>
</svg>
