<svg id="圖層_1" data-name="圖層 1" xmlns="http://www.w3.org/2000/svg" viewBox="0 0 24 24"><defs><style>.cls-1{fill:#fff;}</style></defs><title>logo</title><path class="cls-1" d="M12,12V12h0Z"/><path class="cls-1" d="M11.62,12h0"/><path class="cls-1" d="M23,3.2A6.81,6.81,0,0,0,10.39,6.92q0,5,0,10A3.44,3.44,0,0,1,8.89,20a3.36,3.36,0,0,1-4.23-.11,3.49,3.49,0,0,1,2-6.25c.77,0,2.22-.05,2.22-.05l0-3.27a27.21,27.21,0,0,0-3.11.13A6.41,6.41,0,0,0,.43,14.93a6.44,6.44,0,0,0,1.52,7,6.43,6.43,0,0,0,7.23,1.61,6.4,6.4,0,0,0,4.42-6c.06-1.15.09-3.43.1-3.83V13.6h0s2.88,0,3.86,0a6.36,6.36,0,0,0,4.67-2.2A6.82,6.82,0,0,0,23,3.2M17.5,10.29c-.72.05-3.81,0-3.81,0v-.15c0-1.27-.08-2.48,0-3.67a3.45,3.45,0,0,1,3.67-3.21,3.51,3.51,0,0,1,3.34,3.35,3.43,3.43,0,0,1-3.21,3.66"/></svg>